REM DIRINDEX 1\2,1\3,1\4,1\5
REM DIRNAME folder01,folder02,folder03,folder04,folder05
TITLE ""
FILE "112.mp3" MP3
  TRACK 01 AUDIO
    TITLE "0:"
    INDEX 01 00:00:00
  TRACK 02 AUDIO
    TITLE "2:cjc046_2553"
    INDEX 01 00:00:15
  TRACK 03 AUDIO
    TITLE "0:"
    INDEX 01 00:01:22
  TRACK 04 AUDIO
    TITLE "3:cjc046_2554"
    INDEX 01 00:01:52
  TRACK 05 AUDIO
    TITLE "0:"
    INDEX 01 00:03:31
  TRACK 06 AUDIO
    TITLE "4:cjc046_2555"
    INDEX 01 00:03:45
  TRACK 07 AUDIO
    TITLE "0:"
    INDEX 01 00:04:52
  TRACK 08 AUDIO
    TITLE "2:cjc046_2556"
    INDEX 01 00:05:63
  TRACK 09 AUDIO
    TITLE "0:"
    INDEX 01 00:06:73
  TRACK 10 AUDIO
    TITLE "3:cjc046_2557"
    INDEX 01 00:07:23
  TRACK 11 AUDIO
    TITLE "0:"
    INDEX 01 00:08:19
  TRACK 12 AUDIO
    TITLE "4:cjc046_2558"
    INDEX 01 00:08:30
  TRACK 13 AUDIO
    TITLE "0:"
    INDEX 01 00:09:40
  TRACK 14 AUDIO
    TITLE "2:cjc046_2559"
    INDEX 01 00:10:51
  TRACK 15 AUDIO
    TITLE "0:"
    INDEX 01 00:11:64
  TRACK 16 AUDIO
    TITLE "3:cjc046_2560"
    INDEX 01 00:12:12
  TRACK 17 AUDIO
    TITLE "0:"
    INDEX 01 00:13:28
  TRACK 18 AUDIO
    TITLE "4:cjc046_2561"
    INDEX 01 00:13:37
  TRACK 19 AUDIO
    TITLE "0:"
    INDEX 01 00:14:53
  TRACK 20 AUDIO
    TITLE "2:cjc046_2562"
    INDEX 01 00:15:62
  TRACK 21 AUDIO
    TITLE "0:"
    INDEX 01 00:17:02
  TRACK 22 AUDIO
    TITLE "3:cjc046_2563"
    INDEX 01 00:17:20
  TRACK 23 AUDIO
    TITLE "0:"
    INDEX 01 00:18:52
  TRACK 24 AUDIO
    TITLE "4:cjc046_2564"
    INDEX 01 00:18:66
  TRACK 25 AUDIO
    TITLE "0:"
    INDEX 01 00:20:04
  TRACK 26 AUDIO
    TITLE "2:cjc046_2565"
    INDEX 01 00:21:09
  TRACK 27 AUDIO
    TITLE "0:"
    INDEX 01 00:22:19
  TRACK 28 AUDIO
    TITLE "3:cjc046_2566"
    INDEX 01 00:22:32
  TRACK 29 AUDIO
    TITLE "0:"
    INDEX 01 00:23:22
  TRACK 30 AUDIO
    TITLE "4:cjc046_2567"
    INDEX 01 00:23:36
  TRACK 31 AUDIO
    TITLE "0:"
    INDEX 01 00:24:43
  TRACK 32 AUDIO
    TITLE "2:cjc046_2568"
    INDEX 01 00:25:48
  TRACK 33 AUDIO
    TITLE "0:"
    INDEX 01 00:26:56
  TRACK 34 AUDIO
    TITLE "3:cjc046_2569"
    INDEX 01 00:27:08
  TRACK 35 AUDIO
    TITLE "0:"
    INDEX 01 00:29:34
  TRACK 36 AUDIO
    TITLE "4:cjc046_2570"
    INDEX 01 00:29:50
  TRACK 37 AUDIO
    TITLE "0:"
    INDEX 01 00:30:59
  TRACK 38 AUDIO
    TITLE "2:cjc046_2571"
    INDEX 01 00:31:65
  TRACK 39 AUDIO
    TITLE "0:"
    INDEX 01 00:33:11
  TRACK 40 AUDIO
    TITLE "3:cjc046_2572"
    INDEX 01 00:33:36
  TRACK 41 AUDIO
    TITLE "0:"
    INDEX 01 00:34:67
  TRACK 42 AUDIO
    TITLE "4:cjc046_2573"
    INDEX 01 00:35:06
  TRACK 43 AUDIO
    TITLE "0:"
    INDEX 01 00:36:25
  TRACK 44 AUDIO
    TITLE "2:cjc046_2574"
    INDEX 01 00:37:36
  TRACK 45 AUDIO
    TITLE "0:"
    INDEX 01 00:38:43
  TRACK 46 AUDIO
    TITLE "3:cjc046_2575"
    INDEX 01 00:38:67
  TRACK 47 AUDIO
    TITLE "0:"
    INDEX 01 00:40:01
  TRACK 48 AUDIO
    TITLE "4:cjc046_2576"
    INDEX 01 00:40:13
  TRACK 49 AUDIO
    TITLE "0:"
    INDEX 01 00:41:20
  TRACK 50 AUDIO
    TITLE "2:cjc046_2577"
    INDEX 01 00:42:29
  TRACK 51 AUDIO
    TITLE "0:"
    INDEX 01 00:43:29
  TRACK 52 AUDIO
    TITLE "3:cjc046_2578"
    INDEX 01 00:43:56
  TRACK 53 AUDIO
    TITLE "0:"
    INDEX 01 00:44:61
  TRACK 54 AUDIO
    TITLE "4:cjc046_2579"
    INDEX 01 00:45:02
  TRACK 55 AUDIO
    TITLE "0:"
    INDEX 01 00:46:02
  TRACK 56 AUDIO
    TITLE "2:cjc046_2580"
    INDEX 01 00:47:11
  TRACK 57 AUDIO
    TITLE "0:"
    INDEX 01 00:48:34
  TRACK 58 AUDIO
    TITLE "3:cjc046_2581"
    INDEX 01 00:48:61
  TRACK 59 AUDIO
    TITLE "0:"
    INDEX 01 00:49:70
  TRACK 60 AUDIO
    TITLE "4:cjc046_2582"
    INDEX 01 00:49:74
  TRACK 61 AUDIO
    TITLE "0:"
    INDEX 01 00:51:26
  TRACK 62 AUDIO
    TITLE "2:cjc046_2583"
    INDEX 01 00:52:32
  TRACK 63 AUDIO
    TITLE "0:"
    INDEX 01 00:53:43
  TRACK 64 AUDIO
    TITLE "3:cjc046_2584"
    INDEX 01 00:53:68
  TRACK 65 AUDIO
    TITLE "0:"
    INDEX 01 00:56:02
  TRACK 66 AUDIO
    TITLE "4:cjc046_2585"
    INDEX 01 00:56:16
  TRACK 67 AUDIO
    TITLE "0:"
    INDEX 01 00:57:25
  TRACK 68 AUDIO
    TITLE "2:cjc046_2586"
    INDEX 01 00:58:34
  TRACK 69 AUDIO
    TITLE "0:"
    INDEX 01 00:59:41
  TRACK 70 AUDIO
    TITLE "3:cjc046_2587"
    INDEX 01 00:59:69
  TRACK 71 AUDIO
    TITLE "0:"
    INDEX 01 01:00:59
  TRACK 72 AUDIO
    TITLE "4:cjc046_2588"
    INDEX 01 01:00:72
  TRACK 73 AUDIO
    TITLE "0:"
    INDEX 01 01:02:05
  TRACK 74 AUDIO
    TITLE "2:cjc046_2589"
    INDEX 01 01:03:12
  TRACK 75 AUDIO
    TITLE "0:"
    INDEX 01 01:04:25
  TRACK 76 AUDIO
    TITLE "3:cjc046_2590"
    INDEX 01 01:04:52
  TRACK 77 AUDIO
    TITLE "0:"
    INDEX 01 01:05:62
  TRACK 78 AUDIO
    TITLE "4:cjc046_2591"
    INDEX 01 01:05:68
  TRACK 79 AUDIO
    TITLE "0:"
    INDEX 01 01:07:04
  TRACK 80 AUDIO
    TITLE "2:cjc046_2592"
    INDEX 01 01:08:15
  TRACK 81 AUDIO
    TITLE "0:"
    INDEX 01 01:09:26
  TRACK 82 AUDIO
    TITLE "3:cjc046_2593"
    INDEX 01 01:09:50
  TRACK 83 AUDIO
    TITLE "0:"
    INDEX 01 01:10:73
  TRACK 84 AUDIO
    TITLE "4:cjc046_2594"
    INDEX 01 01:11:07
  TRACK 85 AUDIO
    TITLE "0:"
    INDEX 01 01:12:19
